<svg width="50" height="30" viewBox="0 0 50 30" fill="none" xmlns="http://www.w3.org/2000/svg">
<g clip-path="url(#clip0_32_282)">
<path d="M49.4146 16.7111C49.2975 17.5951 49.1511 18.5362 48.9755 19.4772C47.6874 26.4639 37.8221 30.9981 26.9322 29.6293C26.3467 29.5438 25.7612 29.4582 25.1757 29.3442C17.9158 27.9753 9.30922 31.5685 3.30805 26.635C-0.263378 23.6692 -0.526844 23.327 1.1125 16.1978C1.1125 16.1407 1.14177 16.0837 1.17105 16.0552" stroke="#003579" stroke-miterlimit="10" stroke-linecap="round" stroke-linejoin="round"/>
<path d="M32.4064 0.399291C27.8396 -0.171051 23.0094 0.256705 18.8232 1.96773C16.7155 2.82325 14.6663 4.04948 13.1441 5.56089C11.5633 7.12933 11.5633 9.52477 9.89465 10.8651C8.57732 11.9202 6.14758 12.2339 4.53751 12.8898C-0.731808 15.1141 0.468425 19.7624 4.06913 22.7282C10.0703 27.6616 18.6769 24.097 25.9368 25.4373C26.5223 25.5514 27.1078 25.6369 27.6932 25.7225C38.5539 27.0913 48.4192 22.5571 49.7366 15.5704C51.0246 8.55518 43.267 1.76811 32.4064 0.399291Z" stroke="#003579" stroke-miterlimit="10" stroke-linecap="round" stroke-linejoin="round"/>
<path d="M37.9987 12.0249C38.1725 10.3483 36.0316 8.76462 33.2167 8.48762C30.4018 8.21063 27.9789 9.34524 27.805 11.0218C27.6312 12.6985 29.7722 14.2822 32.5871 14.5592C35.402 14.8362 37.8248 13.7015 37.9987 12.0249Z" stroke="#003579" stroke-miterlimit="10" stroke-linecap="round" stroke-linejoin="round"/>
<path d="M22.8339 19.6484C23.3608 19.9051 23.9463 20.0762 24.5317 20.2473C25.1172 20.3899 25.7027 20.504 26.3175 20.5325C26.6102 20.561 26.9029 20.561 27.225 20.561C27.5177 20.561 27.8397 20.5325 28.1325 20.504C28.7472 20.4469 29.3327 20.3328 29.9182 20.1903C29.9474 20.1903 30.006 20.2188 30.006 20.2473C30.006 20.2758 30.006 20.3328 29.9474 20.3328C29.362 20.5325 28.7765 20.7036 28.1617 20.7606C27.547 20.8462 26.9322 20.8462 26.3175 20.7891C25.7027 20.7321 25.088 20.6465 24.5025 20.4469C23.917 20.2758 23.3315 20.0477 22.8046 19.7625C22.7753 19.734 22.746 19.7055 22.7753 19.6484C22.746 19.6484 22.8046 19.6484 22.8339 19.6484Z" fill="#003579"/>
<path d="M35.3924 4.79096C34.9825 4.64837 34.5434 4.5343 34.1336 4.44875C33.6945 4.3632 33.2554 4.30617 32.8163 4.30617C32.3771 4.27765 31.938 4.30617 31.4989 4.39172C31.0598 4.44875 30.65 4.56282 30.2109 4.67689C30.1816 4.67689 30.123 4.67689 30.123 4.61986C30.123 4.59134 30.123 4.5343 30.1523 4.5343C30.5622 4.3632 31.0013 4.22062 31.4404 4.13506C31.8795 4.04951 32.3479 4.021 32.787 4.021C33.2554 4.04951 33.6945 4.07803 34.1336 4.1921C34.5727 4.30617 35.0118 4.44875 35.4216 4.64837C35.4509 4.67689 35.4802 4.70541 35.4509 4.76244C35.4802 4.79096 35.4216 4.79096 35.3924 4.79096Z" fill="#003579"/>
</g>
<defs>
<clipPath id="clip0_32_282">
<rect width="50" height="30" fill="white"/>
</clipPath>
</defs>
</svg>
