<svg width="46" height="42" viewBox="0 0 46 42" fill="none" xmlns="http://www.w3.org/2000/svg">
<g clip-path="url(#clip0_29_208)">
<path d="M4.85901 10.1919C2.00765 11.3644 0.291016 12.8376 0.291016 14.431C0.291016 14.5512 0.291016 14.6414 0.320111 14.7617C0.436493 15.5734 0.989308 16.3551 1.92036 17.0766C5.26635 19.6923 13.4422 21.5262 22.9855 21.5262C32.7034 21.5262 40.9956 19.6021 44.2252 16.9263C45.0399 16.2348 45.5345 15.5133 45.6509 14.7617C45.68 14.6715 45.68 14.5512 45.68 14.431C45.68 12.7474 43.7888 11.184 40.6465 9.98145" stroke="#1A579A" stroke-miterlimit="10" stroke-linecap="round" stroke-linejoin="round"/>
<path d="M4.85901 10.1919C2.00765 11.3644 0.291016 12.8376 0.291016 14.431C0.291016 14.5512 0.291016 14.6414 0.320111 14.7617C0.436493 15.5734 0.989308 16.3551 1.92036 17.0766C5.26635 19.6923 13.4422 21.5262 22.9855 21.5262C32.7034 21.5262 40.9956 19.6021 44.2252 16.9263C45.0399 16.2348 45.5345 15.5133 45.6509 14.7617C45.68 14.6715 45.68 14.5512 45.68 14.431C45.68 12.7474 43.7888 11.184 40.6465 9.98145" stroke="#1A579A" stroke-miterlimit="10" stroke-linecap="round" stroke-linejoin="round"/>
<path d="M31.6267 37.5806C31.714 37.791 31.7722 38.0315 31.7722 38.242C31.7722 40.2262 27.8443 41.8497 22.9853 41.8497C18.1264 41.8497 14.1985 40.2262 14.1985 38.242C14.1985 38.0015 14.2567 37.791 14.344 37.5806" stroke="#1A579A" stroke-miterlimit="10" stroke-linecap="round" stroke-linejoin="round"/>
<path d="M44.8361 16.9263C44.8361 16.8962 44.8361 16.8361 44.8361 16.806C44.8361 16.4753 44.7488 16.1446 44.5742 15.874C44.2542 15.3328 43.6723 14.9721 43.0322 14.9721C42.683 14.9721 42.3339 15.0923 42.072 15.2727C42.0138 14.9119 41.9265 14.5812 41.8102 14.2505C42.5084 14.01 43.0322 13.3185 43.0322 12.5068C43.0322 11.5147 42.2757 10.7029 41.3446 10.6729C41.3446 10.4624 41.3155 10.2519 41.2282 10.0415C40.9955 9.31995 40.3263 8.80886 39.5407 8.80886C39.5407 7.78667 38.726 6.94486 37.7368 6.94486C37.5331 6.94486 37.3294 6.97493 37.1258 7.06512L37.0967 7.03506C37.4749 6.70435 37.7368 6.19325 37.7368 5.62203C37.7368 4.59984 36.9221 3.75803 35.9329 3.75803C35.1764 3.75803 34.5072 4.26913 34.2453 4.96061C34.158 4.90048 34.0708 4.84035 33.9835 4.81029C34.1871 4.50964 34.3035 4.14887 34.3035 3.75803C34.3035 2.73584 33.4888 1.89404 32.4996 1.89404C31.6558 1.89404 30.9575 2.49533 30.7539 3.30707C30.7248 3.30707 30.7248 3.30707 30.6957 3.277C30.6957 3.21687 30.6957 3.18681 30.6957 3.12668C30.6957 2.10449 29.881 1.26269 28.8918 1.26269C28.1644 1.26269 27.5243 1.71365 27.2624 2.34501C27.2042 2.34501 27.146 2.31494 27.0587 2.31494C27.0878 2.19468 27.0878 2.10449 27.0878 1.98423C27.0878 0.962043 26.2732 0.120239 25.2839 0.120239C24.2947 0.120239 23.48 0.962043 23.48 1.98423C23.4509 1.98423 23.3927 1.98423 23.3636 1.98423C23.1017 1.29275 22.4616 0.781656 21.6761 0.781656C20.8323 0.781656 20.134 1.38294 19.9303 2.19468C19.7267 1.38294 19.0284 0.781656 18.1846 0.781656C17.3117 0.781656 16.5553 1.44307 16.4098 2.31494C16.1188 2.10449 15.7406 1.95417 15.3623 1.95417C14.3731 1.95417 13.5584 2.79597 13.5584 3.81816C13.5584 3.90836 13.5584 3.99855 13.5875 4.08874H13.5584C13.2675 3.84823 12.8892 3.69791 12.4528 3.69791C11.4635 3.69791 10.678 4.50964 10.6489 5.50177C10.3288 5.20113 9.89238 5.02074 9.42686 5.02074C8.43761 5.02074 7.62293 5.86254 7.62293 6.88473C7.62293 7.3357 7.76841 7.7566 8.03027 8.05725C8.17575 8.11738 8.14665 8.11738 8.14665 8.14744C7.8557 7.96705 7.53565 7.8468 7.1865 7.8468C6.19725 7.8468 5.38258 8.6886 5.38258 9.71079C5.38258 9.86111 5.41168 10.0114 5.44077 10.1618C5.46987 10.3421 5.55715 10.4925 5.61534 10.6428C4.80067 10.8232 4.18966 11.5748 4.18966 12.4467C4.18966 12.6872 4.21876 12.8976 4.30605 13.078C4.27695 13.078 4.21876 13.078 4.18966 13.078C3.20042 13.078 2.38574 13.9198 2.38574 14.942C2.38574 15.3028 2.47303 15.6335 2.6476 15.9041C2.76398 16.0844 2.88037 16.2348 3.05494 16.3851C2.82217 16.5655 2.61851 16.806 2.50212 17.0766" stroke="#1A579A" stroke-miterlimit="10" stroke-linecap="round" stroke-linejoin="round"/>
<path d="M0.320124 14.7616C0.261933 14.7316 0.203742 14.6714 0.145551 14.6414C0.116455 15.0021 0.116455 15.3328 0.116455 15.6936C0.116455 19.0909 0.814747 22.3379 2.06585 25.2541C2.70596 26.7273 3.46244 28.1102 4.3644 29.403C6.86661 33.0107 10.2999 35.8668 14.3151 37.5504C16.9919 38.6929 19.9014 39.2942 22.9564 39.2942C26.0115 39.2942 28.9501 38.6628 31.5978 37.5504C35.7294 35.8067 39.279 32.8303 41.7812 29.0723C42.7123 27.6893 43.4979 26.1861 44.138 24.5927C45.2145 21.8568 45.8255 18.8203 45.8255 15.6936C45.8255 15.3328 45.8255 14.9721 45.7964 14.6414C45.7382 14.6714 45.68 14.7316 45.6509 14.7616" stroke="#1A579A" stroke-miterlimit="10" stroke-linecap="round" stroke-linejoin="round"/>
<path d="M32.2959 8.11745C32.2668 7.72661 32.0922 7.36584 31.8304 7.12532C31.5685 6.8848 31.2194 6.73448 30.8702 6.73448C30.5211 6.73448 30.1719 6.8848 29.9101 7.12532C29.6482 7.36584 29.4736 7.72661 29.4445 8.11745C29.4445 8.14751 29.4154 8.17757 29.3573 8.17757C29.3282 8.17757 29.2991 8.14751 29.2991 8.11745C29.27 7.69654 29.4154 7.24558 29.7064 6.94493C29.9974 6.61422 30.4338 6.43384 30.8411 6.43384C31.2776 6.43384 31.6849 6.61422 31.9759 6.94493C32.2668 7.27564 32.4123 7.69654 32.3832 8.11745C32.3832 8.14751 32.3541 8.17757 32.2959 8.17757C32.325 8.17757 32.2959 8.14751 32.2959 8.11745Z" fill="#1A579A"/>
<path d="M27.3789 11.9957C27.3498 11.6049 27.1752 11.2441 26.9134 11.0036C26.6515 10.7631 26.3024 10.6128 25.9532 10.6128C25.6041 10.6128 25.2549 10.7631 24.9931 11.0036C24.7312 11.2441 24.5566 11.6049 24.5275 11.9957C24.5275 12.0258 24.4985 12.0559 24.4403 12.0559C24.4112 12.0559 24.3821 12.0258 24.3821 11.9957C24.353 11.5748 24.4985 11.1239 24.7894 10.8232C25.0804 10.4925 25.5168 10.3121 25.9241 10.3121C26.3606 10.3121 26.7679 10.4925 27.0589 10.8232C27.3498 11.1539 27.4953 11.5748 27.4662 11.9957C27.4662 12.0258 27.4371 12.0559 27.3789 12.0559C27.408 12.0559 27.408 12.0258 27.3789 11.9957Z" fill="#1A579A"/>
<path d="M30.8123 16.7459C30.7832 16.355 30.6086 15.9943 30.3467 15.7537C30.0849 15.5132 29.7357 15.3629 29.3866 15.3629C29.0374 15.3629 28.6883 15.5132 28.4264 15.7537C28.1646 15.9943 27.99 16.355 27.9609 16.7459C27.9609 16.7759 27.9318 16.806 27.8736 16.806C27.8445 16.806 27.8154 16.7759 27.8154 16.7459C27.7863 16.325 27.9318 15.874 28.2228 15.5734C28.5137 15.2426 28.9501 15.0623 29.3575 15.0623C29.7939 15.0623 30.2013 15.2426 30.4922 15.5734C30.7832 15.9041 30.9286 16.325 30.8995 16.7459C30.8995 16.7759 30.8705 16.806 30.8123 16.806C30.8414 16.806 30.8123 16.7759 30.8123 16.7459Z" fill="#1A579A"/>
<path d="M10.4162 12.7473C10.3872 12.3565 10.2126 11.9957 9.95072 11.7552C9.68886 11.5147 9.33971 11.3644 8.99057 11.3644C8.64142 11.3644 8.29228 11.5147 8.03042 11.7552C7.76856 11.9957 7.59398 12.3565 7.56489 12.7473C7.56489 12.7774 7.53579 12.8075 7.4776 12.8075C7.44851 12.8075 7.41941 12.7774 7.41941 12.7473C7.39031 12.3264 7.56489 11.9055 7.85584 11.5748C8.1468 11.2441 8.58323 11.0637 8.99057 11.0637C9.427 11.0637 9.83434 11.2441 10.1253 11.5748C10.4162 11.9055 10.5617 12.3264 10.5326 12.7473C10.5326 12.7774 10.5035 12.8075 10.4453 12.8075C10.4453 12.8075 10.4162 12.7774 10.4162 12.7473Z" fill="#1A579A"/>
<path d="M21.7634 15.9943C21.7343 15.6034 21.5598 15.2427 21.2979 15.0022C21.036 14.7616 20.6869 14.6113 20.3378 14.6113C19.9886 14.6113 19.6395 14.7616 19.3776 15.0022C19.1157 15.2427 18.9412 15.6034 18.9121 15.9943C18.9121 16.0243 18.883 16.0544 18.8248 16.0544C18.7957 16.0544 18.7666 16.0243 18.7666 15.9943C18.7375 15.5734 18.883 15.1224 19.1739 14.8218C19.4649 14.4911 19.9013 14.3107 20.3087 14.3107C20.7451 14.3107 21.1524 14.4911 21.4434 14.8218C21.7343 15.1525 21.8798 15.5734 21.8507 15.9943C21.8507 16.0243 21.8216 16.0544 21.7634 16.0544C21.7925 16.0544 21.7634 16.0243 21.7634 15.9943Z" fill="#1A579A"/>
<path d="M17.1082 9.65065C17.0791 9.25981 16.9045 8.89904 16.6426 8.65852C16.3808 8.41801 16.0316 8.26769 15.6825 8.26769C15.3333 8.26769 14.9842 8.41801 14.7223 8.65852C14.4605 8.89904 14.2859 9.25981 14.2568 9.65065C14.2568 9.68071 14.2277 9.71078 14.1695 9.71078C14.1404 9.71078 14.1113 9.68071 14.1113 9.65065C14.0822 9.22975 14.2277 8.77878 14.5187 8.47814C14.8096 8.14743 15.246 7.96704 15.6534 7.96704C16.0898 7.96704 16.4972 8.14743 16.7881 8.47814C17.0791 8.80885 17.2245 9.22975 17.1954 9.65065C17.1954 9.68071 17.1663 9.71078 17.1082 9.71078C17.1373 9.71078 17.1082 9.68071 17.1082 9.65065Z" fill="#1A579A"/>
<path d="M23.8584 6.58412C23.8293 6.19328 23.6547 5.83251 23.3929 5.59199C23.131 5.35148 22.7819 5.20116 22.4327 5.20116C22.0836 5.20116 21.7344 5.35148 21.4726 5.59199C21.2107 5.83251 21.0361 6.19328 21.007 6.58412C21.007 6.61418 20.9779 6.64425 20.9198 6.64425C20.8907 6.64425 20.8616 6.61418 20.8616 6.58412C20.8325 6.16322 20.9779 5.71225 21.2689 5.41161C21.5599 5.0809 21.9963 4.90051 22.4036 4.90051C22.8401 4.90051 23.2474 5.0809 23.5384 5.41161C23.8293 5.74232 23.9748 6.16322 23.9457 6.58412C23.9457 6.61418 23.9166 6.64425 23.8584 6.64425C23.8875 6.64425 23.8584 6.61418 23.8584 6.58412Z" fill="#1A579A"/>
<path d="M36.7766 12.7473C36.7475 12.3565 36.5729 11.9957 36.3111 11.7552C36.0492 11.5147 35.7001 11.3644 35.3509 11.3644C35.0018 11.3644 34.6526 11.5147 34.3908 11.7552C34.1289 11.9957 33.9544 12.3565 33.9253 12.7473C33.9253 12.7774 33.8962 12.8075 33.838 12.8075C33.8089 12.8075 33.7798 12.7774 33.7798 12.7473C33.7507 12.3264 33.8962 11.8755 34.1871 11.5748C34.4781 11.2441 34.9145 11.0637 35.3218 11.0637C35.7583 11.0637 36.1656 11.2441 36.4566 11.5748C36.7475 11.9055 36.893 12.3264 36.8639 12.7473C36.8639 12.7774 36.8348 12.8075 36.7766 12.8075C36.8057 12.8075 36.7766 12.7774 36.7766 12.7473Z" fill="#1A579A"/>
</g>
<defs>
<clipPath id="clip0_29_208">
<rect width="46" height="42" fill="white"/>
</clipPath>
</defs>
</svg>
