<svg width="48" height="45" viewBox="0 0 48 45" fill="none" xmlns="http://www.w3.org/2000/svg">
<path d="M23.985 41.8279C37.1468 41.8279 47.8201 31.2746 47.8201 18.2607H0.149902C0.149902 31.2746 10.8232 41.8279 23.985 41.8279Z" stroke="#1A579A" stroke-miterlimit="10" stroke-linecap="round" stroke-linejoin="round"/>
<path d="M30.3711 8.38935C30.9108 6.04745 33.0394 4.2688 35.5878 4.2688C38.556 4.2688 40.9245 6.64034 40.9245 9.57512C40.9245 11.4724 39.9051 13.1324 38.3761 14.0811C38.4361 14.0811 38.496 14.0811 38.556 14.0811C41.1344 14.0811 43.293 15.8894 43.8027 18.2905" stroke="#1A579A" stroke-miterlimit="10" stroke-linecap="round" stroke-linejoin="round"/>
<path d="M26.0837 18.2608C26.6834 16.7786 26.5634 15.0296 25.664 13.577C25.1843 12.8359 24.5847 12.243 23.8651 11.7983C22.1862 10.8201 20.0575 10.7608 18.2886 11.828C18.2286 11.8576 18.1687 11.8873 18.1387 11.9466C18.5884 11.0869 18.7683 10.1086 18.7083 9.13035C18.6484 8.32996 18.3785 7.52956 17.9288 6.78846C16.3698 4.29834 13.1018 3.52759 10.5834 5.03945C8.06499 6.58095 7.28548 9.81217 8.81452 12.3319C10.3735 14.8221 9.14432 13.7252 6.62589 15.2667C5.45662 15.9782 4.64713 17.075 4.28735 18.2904" stroke="#1A579A" stroke-miterlimit="10" stroke-linecap="round" stroke-linejoin="round"/>
<path d="M32.7096 18.2608C34.9283 17.0157 36.0076 14.3478 35.1082 11.8873C34.3586 9.84183 32.4698 8.50784 30.4011 8.38926C29.7115 8.35962 28.992 8.44855 28.2724 8.6857C28.2125 8.71535 28.1525 8.74499 28.0925 8.74499C29.2318 7.35171 29.6216 5.45448 28.962 3.64618C27.9726 0.918905 24.9145 -0.533665 22.1263 0.444596C19.338 1.4525 17.8989 4.47622 18.8883 7.23313C19.4579 8.80428 19.368 9.04143 18.7084 9.16001" stroke="#1A579A" stroke-miterlimit="10" stroke-linecap="round" stroke-linejoin="round"/>
<path d="M13.3416 10.583L15.7101 17.6087" stroke="#1A579A" stroke-miterlimit="10" stroke-linecap="round" stroke-linejoin="round"/>
<path d="M35.9176 8.77466L34.7783 10.583" stroke="#1A579A" stroke-miterlimit="10" stroke-linecap="round" stroke-linejoin="round"/>
<path d="M23.5354 5.24707V11.2649" stroke="#1A579A" stroke-miterlimit="10" stroke-linecap="round" stroke-linejoin="round"/>
<path d="M32.7396 40.1975C33.8189 40.6718 34.4485 41.2351 34.4485 41.8279C34.4485 43.488 29.7714 44.822 24.015 44.822C18.2586 44.822 13.5815 43.488 13.5815 41.8279C13.5815 41.2351 14.2111 40.6718 15.2905 40.1975" stroke="#1A579A" stroke-miterlimit="10" stroke-linecap="round" stroke-linejoin="round"/>
</svg>
